# xmcd CD database file
#
# Track frame offsets:
#	150
#	20569
#	43144
#	63883
#	85224
#	105157
#	132845
#	149825
#	169742
#	187841
#	203778
#	225701
#	239815
#	262247
#	279773
#	308626
#	328453
#	345803
#
# Disc length: 4844 seconds
#
# Revision: 0
# Processed by: cddbd v1.4PL0 Copyright (c) Steve Scherf et al.
# Submitted via: Feurio! 1.66 - http://www.feurio.com
#
DISCID=0412ea12
DTITLE=Various Artist - Soft Shit (r&b)
DYEAR=1900
DGENRE=R&B
TTITLE0=Gerald Levert - U Got That Love (Call It A Night)
TTITLE1=Jagged Edge - I Don't Wanna 
TTITLE2=Latif - Heavenly
TTITLE3=112 - All My Love
TTITLE4=Anthony Hamilton - I'm A Mess
TTITLE5=Alicia Keys - You Don't Know My Name 
TTITLE6=Joe - More And More
TTITLE7=Silk - Silktime
TTITLE8=Avant - Read Your Mind
TTITLE9=Marques Houston - Walk Away
TTITLE10=Playa - Never Too Late
TTITLE11=R.kelly - Raindrops
TTITLE12=Latif - Without U
TTITLE13=Musiq - Forthenight
TTITLE14=Dave Hollister - Pleased Tonight
TTITLE15=Jagged Edge - What's It Like 
TTITLE16=Michael Jackson - One More Chance
TTITLE17=Glenn Lewis - Back For More
EXTD=
EXTT0=
EXTT1=
EXTT2=
EXTT3=
EXTT4=
EXTT5=
EXTT6=
EXTT7=
EXTT8=
EXTT9=
EXTT10=
EXTT11=
EXTT12=
EXTT13=
EXTT14=
EXTT15=
EXTT16=
EXTT17=
PLAYORDER=
